<svg id="visual" viewBox="0 0 900 600" width="900" height="600" xmlns="http://www.w3.org/2000/svg" xmlns:xlink="http://www.w3.org/1999/xlink" version="1.1"><rect x="0" y="0" width="900" height="600" fill="#001220"></rect><path d="M0 204L21.5 217.8C43 231.7 86 259.3 128.8 260C171.7 260.7 214.3 234.3 257.2 221C300 207.7 343 207.3 385.8 214.2C428.7 221 471.3 235 514.2 248.5C557 262 600 275 642.8 280C685.7 285 728.3 282 771.2 275.5C814 269 857 259 878.5 254L900 249L900 0L878.5 0C857 0 814 0 771.2 0C728.3 0 685.7 0 642.8 0C600 0 557 0 514.2 0C471.3 0 428.7 0 385.8 0C343 0 300 0 257.2 0C214.3 0 171.7 0 128.8 0C86 0 43 0 21.5 0L0 0Z" fill="#7c104f"></path><path d="M0 224L21.5 216.5C43 209 86 194 128.8 190.7C171.7 187.3 214.3 195.7 257.2 197C300 198.3 343 192.7 385.8 199.3C428.7 206 471.3 225 514.2 232.5C557 240 600 236 642.8 223.7C685.7 211.3 728.3 190.7 771.2 182.5C814 174.3 857 178.7 878.5 180.8L900 183L900 0L878.5 0C857 0 814 0 771.2 0C728.3 0 685.7 0 642.8 0C600 0 557 0 514.2 0C471.3 0 428.7 0 385.8 0C343 0 300 0 257.2 0C214.3 0 171.7 0 128.8 0C86 0 43 0 21.5 0L0 0Z" fill="#b3365d"></path><path d="M0 211L21.5 209.7C43 208.3 86 205.7 128.8 205.2C171.7 204.7 214.3 206.3 257.2 209.5C300 212.7 343 217.3 385.8 208.2C428.7 199 471.3 176 514.2 171.8C557 167.7 600 182.3 642.8 191.7C685.7 201 728.3 205 771.2 199.8C814 194.7 857 180.3 878.5 173.2L900 166L900 0L878.5 0C857 0 814 0 771.2 0C728.3 0 685.7 0 642.8 0C600 0 557 0 514.2 0C471.3 0 428.7 0 385.8 0C343 0 300 0 257.2 0C214.3 0 171.7 0 128.8 0C86 0 43 0 21.5 0L0 0Z" fill="#e76065"></path><path d="M0 122L21.5 124.5C43 127 86 132 128.8 140C171.7 148 214.3 159 257.2 154C300 149 343 128 385.8 118.2C428.7 108.3 471.3 109.7 514.2 121.2C557 132.7 600 154.3 642.8 162C685.7 169.7 728.3 163.3 771.2 154.3C814 145.3 857 133.7 878.5 127.8L900 122L900 0L878.5 0C857 0 814 0 771.2 0C728.3 0 685.7 0 642.8 0C600 0 557 0 514.2 0C471.3 0 428.7 0 385.8 0C343 0 300 0 257.2 0C214.3 0 171.7 0 128.8 0C86 0 43 0 21.5 0L0 0Z" fill="#fa7268"></path><path d="M0 106L21.5 109.3C43 112.7 86 119.3 128.8 114.7C171.7 110 214.3 94 257.2 95.7C300 97.3 343 116.7 385.8 121.2C428.7 125.7 471.3 115.3 514.2 109.7C557 104 600 103 642.8 106.2C685.7 109.3 728.3 116.7 771.2 116.3C814 116 857 108 878.5 104L900 100L900 0L878.5 0C857 0 814 0 771.2 0C728.3 0 685.7 0 642.8 0C600 0 557 0 514.2 0C471.3 0 428.7 0 385.8 0C343 0 300 0 257.2 0C214.3 0 171.7 0 128.8 0C86 0 43 0 21.5 0L0 0Z" fill="#e76065"></path><path d="M0 56L21.5 56.7C43 57.3 86 58.7 128.8 60.8C171.7 63 214.3 66 257.2 71.8C300 77.7 343 86.3 385.8 90.3C428.7 94.3 471.3 93.7 514.2 92.3C557 91 600 89 642.8 85C685.7 81 728.3 75 771.2 72.8C814 70.7 857 72.3 878.5 73.2L900 74L900 0L878.5 0C857 0 814 0 771.2 0C728.3 0 685.7 0 642.8 0C600 0 557 0 514.2 0C471.3 0 428.7 0 385.8 0C343 0 300 0 257.2 0C214.3 0 171.7 0 128.8 0C86 0 43 0 21.5 0L0 0Z" fill="#b3365d"></path><path d="M0 59L21.5 58.2C43 57.3 86 55.7 128.8 56.3C171.7 57 214.3 60 257.2 60.5C300 61 343 59 385.8 58.7C428.7 58.3 471.3 59.7 514.2 60C557 60.3 600 59.7 642.8 57.7C685.7 55.7 728.3 52.3 771.2 52.3C814 52.3 857 55.7 878.5 57.3L900 59L900 0L878.5 0C857 0 814 0 771.2 0C728.3 0 685.7 0 642.8 0C600 0 557 0 514.2 0C471.3 0 428.7 0 385.8 0C343 0 300 0 257.2 0C214.3 0 171.7 0 128.8 0C86 0 43 0 21.5 0L0 0Z" fill="#7c104f"></path></svg>