<svg id="visual" viewBox="0 0 900 600" width="900" height="600" xmlns="http://www.w3.org/2000/svg" xmlns:xlink="http://www.w3.org/1999/xlink" version="1.1"><path d="M0 145L10 151C20 157 40 169 60 184C80 199 100 217 120 223C140 229 160 223 180 220C200 217 220 217 240 204C260 191 280 165 300 139C320 113 340 87 360 76C380 65 400 69 420 69C440 69 460 65 480 97C500 129 520 197 540 218C560 239 580 213 600 195C620 177 640 167 660 168C680 169 700 181 720 176C740 171 760 149 780 128C800 107 820 87 840 95C860 103 880 139 890 157L900 175L900 0L890 0C880 0 860 0 840 0C820 0 800 0 780 0C760 0 740 0 720 0C700 0 680 0 660 0C640 0 620 0 600 0C580 0 560 0 540 0C520 0 500 0 480 0C460 0 440 0 420 0C400 0 380 0 360 0C340 0 320 0 300 0C280 0 260 0 240 0C220 0 200 0 180 0C160 0 140 0 120 0C100 0 80 0 60 0C40 0 20 0 10 0L0 0Z" fill="#001b98"></path><path d="M0 277L10 285C20 293 40 309 60 313C80 317 100 309 120 300C140 291 160 281 180 279C200 277 220 283 240 292C260 301 280 313 300 304C320 295 340 265 360 260C380 255 400 275 420 269C440 263 460 231 480 242C500 253 520 307 540 320C560 333 580 305 600 286C620 267 640 257 660 265C680 273 700 299 720 299C740 299 760 273 780 268C800 263 820 279 840 283C860 287 880 279 890 275L900 271L900 173L890 155C880 137 860 101 840 93C820 85 800 105 780 126C760 147 740 169 720 174C700 179 680 167 660 166C640 165 620 175 600 193C580 211 560 237 540 216C520 195 500 127 480 95C460 63 440 67 420 67C400 67 380 63 360 74C340 85 320 111 300 137C280 163 260 189 240 202C220 215 200 215 180 218C160 221 140 227 120 221C100 215 80 197 60 182C40 167 20 155 10 149L0 143Z" fill="#0526a6"></path><path d="M0 343L10 346C20 349 40 355 60 357C80 359 100 357 120 350C140 343 160 331 180 332C200 333 220 347 240 351C260 355 280 349 300 336C320 323 340 303 360 298C380 293 400 303 420 299C440 295 460 277 480 292C500 307 520 355 540 368C560 381 580 359 600 339C620 319 640 301 660 306C680 311 700 339 720 344C740 349 760 331 780 330C800 329 820 345 840 343C860 341 880 321 890 311L900 301L900 269L890 273C880 277 860 285 840 281C820 277 800 261 780 266C760 271 740 297 720 297C700 297 680 271 660 263C640 255 620 265 600 284C580 303 560 331 540 318C520 305 500 251 480 240C460 229 440 261 420 267C400 273 380 253 360 258C340 263 320 293 300 302C280 311 260 299 240 290C220 281 200 275 180 277C160 279 140 289 120 298C100 307 80 315 60 311C40 307 20 291 10 283L0 275Z" fill="#0930b4"></path><path d="M0 385L10 385C20 385 40 385 60 387C80 389 100 393 120 388C140 383 160 369 180 367C200 365 220 375 240 378C260 381 280 377 300 369C320 361 340 349 360 351C380 353 400 369 420 364C440 359 460 333 480 342C500 351 520 395 540 411C560 427 580 415 600 403C620 391 640 379 660 386C680 393 700 419 720 414C740 409 760 373 780 369C800 365 820 393 840 391C860 389 880 357 890 341L900 325L900 299L890 309C880 319 860 339 840 341C820 343 800 327 780 328C760 329 740 347 720 342C700 337 680 309 660 304C640 299 620 317 600 337C580 357 560 379 540 366C520 353 500 305 480 290C460 275 440 293 420 297C400 301 380 291 360 296C340 301 320 321 300 334C280 347 260 353 240 349C220 345 200 331 180 330C160 329 140 341 120 348C100 355 80 357 60 355C40 353 20 347 10 344L0 341Z" fill="#0b3bc3"></path><path d="M0 433L10 432C20 431 40 429 60 434C80 439 100 451 120 452C140 453 160 443 180 440C200 437 220 441 240 438C260 435 280 425 300 413C320 401 340 387 360 386C380 385 400 397 420 395C440 393 460 377 480 387C500 397 520 433 540 451C560 469 580 469 600 457C620 445 640 421 660 422C680 423 700 449 720 451C740 453 760 431 780 425C800 419 820 429 840 422C860 415 880 391 890 379L900 367L900 323L890 339C880 355 860 387 840 389C820 391 800 363 780 367C760 371 740 407 720 412C700 417 680 391 660 384C640 377 620 389 600 401C580 413 560 425 540 409C520 393 500 349 480 340C460 331 440 357 420 362C400 367 380 351 360 349C340 347 320 359 300 367C280 375 260 379 240 376C220 373 200 363 180 365C160 367 140 381 120 386C100 391 80 387 60 385C40 383 20 383 10 383L0 383Z" fill="#0c45d1"></path><path d="M0 463L10 467C20 471 40 479 60 484C80 489 100 491 120 485C140 479 160 465 180 459C200 453 220 455 240 453C260 451 280 445 300 439C320 433 340 427 360 426C380 425 400 429 420 427C440 425 460 417 480 428C500 439 520 469 540 487C560 505 580 511 600 496C620 481 640 445 660 444C680 443 700 477 720 483C740 489 760 467 780 460C800 453 820 461 840 452C860 443 880 417 890 404L900 391L900 365L890 377C880 389 860 413 840 420C820 427 800 417 780 423C760 429 740 451 720 449C700 447 680 421 660 420C640 419 620 443 600 455C580 467 560 467 540 449C520 431 500 395 480 385C460 375 440 391 420 393C400 395 380 383 360 384C340 385 320 399 300 411C280 423 260 433 240 436C220 439 200 435 180 438C160 441 140 451 120 450C100 449 80 437 60 432C40 427 20 429 10 430L0 431Z" fill="#0b50e0"></path><path d="M0 511L10 517C20 523 40 535 60 541C80 547 100 547 120 541C140 535 160 523 180 525C200 527 220 543 240 547C260 551 280 543 300 535C320 527 340 519 360 520C380 521 400 531 420 527C440 523 460 505 480 504C500 503 520 519 540 528C560 537 580 539 600 528C620 517 640 493 660 496C680 499 700 529 720 529C740 529 760 499 780 488C800 477 820 485 840 491C860 497 880 501 890 503L900 505L900 389L890 402C880 415 860 441 840 450C820 459 800 451 780 458C760 465 740 487 720 481C700 475 680 441 660 442C640 443 620 479 600 494C580 509 560 503 540 485C520 467 500 437 480 426C460 415 440 423 420 425C400 427 380 423 360 424C340 425 320 431 300 437C280 443 260 449 240 451C220 453 200 451 180 457C160 463 140 477 120 483C100 489 80 487 60 482C40 477 20 469 10 465L0 461Z" fill="#075bf0"></path><path d="M0 601L10 601C20 601 40 601 60 601C80 601 100 601 120 601C140 601 160 601 180 601C200 601 220 601 240 601C260 601 280 601 300 601C320 601 340 601 360 601C380 601 400 601 420 601C440 601 460 601 480 601C500 601 520 601 540 601C560 601 580 601 600 601C620 601 640 601 660 601C680 601 700 601 720 601C740 601 760 601 780 601C800 601 820 601 840 601C860 601 880 601 890 601L900 601L900 503L890 501C880 499 860 495 840 489C820 483 800 475 780 486C760 497 740 527 720 527C700 527 680 497 660 494C640 491 620 515 600 526C580 537 560 535 540 526C520 517 500 501 480 502C460 503 440 521 420 525C400 529 380 519 360 518C340 517 320 525 300 533C280 541 260 549 240 545C220 541 200 525 180 523C160 521 140 533 120 539C100 545 80 545 60 539C40 533 20 521 10 515L0 509Z" fill="#0066ff"></path></svg>