<svg id="visual" viewBox="0 0 900 600" width="900" height="600" xmlns="http://www.w3.org/2000/svg" xmlns:xlink="http://www.w3.org/1999/xlink" version="1.1"><rect x="0" y="0" width="900" height="600" fill="#eb0839"></rect><path d="M0 412L15 413.2C30 414.3 60 416.7 90 425.5C120 434.3 150 449.7 180 449.2C210 448.7 240 432.3 270 415.8C300 399.3 330 382.7 360 371.7C390 360.7 420 355.3 450 364.8C480 374.3 510 398.7 540 404.7C570 410.7 600 398.3 630 401.5C660 404.7 690 423.3 720 428.8C750 434.3 780 426.7 810 421C840 415.3 870 411.7 885 409.8L900 408L900 601L885 601C870 601 840 601 810 601C780 601 750 601 720 601C690 601 660 601 630 601C600 601 570 601 540 601C510 601 480 601 450 601C420 601 390 601 360 601C330 601 300 601 270 601C240 601 210 601 180 601C150 601 120 601 90 601C60 601 30 601 15 601L0 601Z" fill="#c62368"></path><path d="M0 455L15 447C30 439 60 423 90 416.8C120 410.7 150 414.3 180 428.5C210 442.7 240 467.3 270 464.7C300 462 330 432 360 430.7C390 429.3 420 456.7 450 469.3C480 482 510 480 540 474.5C570 469 600 460 630 447C660 434 690 417 720 419.8C750 422.7 780 445.3 810 447.8C840 450.3 870 432.7 885 423.8L900 415L900 601L885 601C870 601 840 601 810 601C780 601 750 601 720 601C690 601 660 601 630 601C600 601 570 601 540 601C510 601 480 601 450 601C420 601 390 601 360 601C330 601 300 601 270 601C240 601 210 601 180 601C150 601 120 601 90 601C60 601 30 601 15 601L0 601Z" fill="#772b6e"></path><path d="M0 476L15 478.2C30 480.3 60 484.7 90 495C120 505.3 150 521.7 180 524.7C210 527.7 240 517.3 270 506.5C300 495.7 330 484.3 360 485.5C390 486.7 420 500.3 450 498C480 495.7 510 477.3 540 476C570 474.7 600 490.3 630 503.2C660 516 690 526 720 521.7C750 517.3 780 498.7 810 495.3C840 492 870 504 885 510L900 516L900 601L885 601C870 601 840 601 810 601C780 601 750 601 720 601C690 601 660 601 630 601C600 601 570 601 540 601C510 601 480 601 450 601C420 601 390 601 360 601C330 601 300 601 270 601C240 601 210 601 180 601C150 601 120 601 90 601C60 601 30 601 15 601L0 601Z" fill="#2b2652"></path><path d="M0 554L15 551C30 548 60 542 90 538.8C120 535.7 150 535.3 180 541.3C210 547.3 240 559.7 270 563.7C300 567.7 330 563.3 360 562.5C390 561.7 420 564.3 450 558.7C480 553 510 539 540 531.2C570 523.3 600 521.7 630 523.7C660 525.7 690 531.3 720 530C750 528.7 780 520.3 810 525.8C840 531.3 870 550.7 885 560.3L900 570L900 601L885 601C870 601 840 601 810 601C780 601 750 601 720 601C690 601 660 601 630 601C600 601 570 601 540 601C510 601 480 601 450 601C420 601 390 601 360 601C330 601 300 601 270 601C240 601 210 601 180 601C150 601 120 601 90 601C60 601 30 601 15 601L0 601Z" fill="#001122"></path></svg>